<?xml version="1.0" encoding="iso-8859-1"?>
<!-- Generator: Adobe Illustrator 18.0.0, SVG Export Plug-In . SVG Version: 6.00 Build 0)  -->
<!DOCTYPE svg PUBLIC "-//W3C//DTD SVG 1.1//EN" "http://www.w3.org/Graphics/SVG/1.1/DTD/svg11.dtd">
<svg version="1.1" id="Capa_1" xmlns="http://www.w3.org/2000/svg" xmlns:xlink="http://www.w3.org/1999/xlink" x="0px" y="0px"
	 viewBox="0 0 297.167 297.167" style="enable-background:new 0 0 297.167 297.167;" xml:space="preserve">
<g>
	<path d="M295.379,259.925l-50-92.995c-0.076-0.142-0.162-0.277-0.242-0.415c-8.331,12.184-22.233,19.625-37.14,19.625
		c-16.16,0-31.155-8.73-39.132-22.781c-0.712-1.254-1.536-2.718-2.432-4.325H65c-5.521,0-10.597,3.033-13.212,7.896l-50,92.995
		c-2.499,4.648-2.371,10.268,0.337,14.799c2.707,4.531,7.597,7.305,12.875,7.305h267.167c5.278,0,10.168-2.773,12.875-7.305
		C297.75,270.193,297.878,264.573,295.379,259.925z"/>
	<path d="M194.952,148.545L194.952,148.545c2.665,4.695,7.647,7.594,13.044,7.594c5.397,0,10.379-2.899,13.044-7.594
		c8.318-14.648,35.456-64.063,35.456-84.906c0-7.522-1.721-14.649-4.79-21.009c-7.843-16.252-24.488-27.492-43.71-27.492
		c-26.743,0-48.5,21.757-48.5,48.5C159.496,84.482,186.635,133.897,194.952,148.545L194.952,148.545z M222.996,60.578
		c0,8.284-6.716,15-15,15s-15-6.716-15-15c0-8.285,6.716-15,15-15S222.996,52.293,222.996,60.578z"/>
</g>
<g>
</g>
<g>
</g>
<g>
</g>
<g>
</g>
<g>
</g>
<g>
</g>
<g>
</g>
<g>
</g>
<g>
</g>
<g>
</g>
<g>
</g>
<g>
</g>
<g>
</g>
<g>
</g>
<g>
</g>
</svg>
