<?xml version="1.0" encoding="utf-8"?>
<!-- Svg Vector Icons : http://www.onlinewebfonts.com/icon -->
<!DOCTYPE svg PUBLIC "-//W3C//DTD SVG 1.1//EN" "http://www.w3.org/Graphics/SVG/1.1/DTD/svg11.dtd">
<svg version="1.1" xmlns="http://www.w3.org/2000/svg" xmlns:xlink="http://www.w3.org/1999/xlink" x="0px" y="0px" viewBox="0 0 1000 1000" enable-background="new 0 0 1000 1000" xml:space="preserve">
<metadata> Svg Vector Icons : http://www.onlinewebfonts.com/icon </metadata>
<g><g transform="translate(0.000000,511.000000) scale(0.100000,-0.100000)"><path d="M3913.9,4993.7c-705.8-73.1-1386.6-371.2-1907.7-838.5c-626.9-561.5-1013.5-1375-1111.6-2330.8c-69.2-696.2,61.5-1452,355.8-2052c82.7-165.4,425-675,1540.4-2288.5c788.5-1140.4,1442.3-2075,1450-2075c9.6,0,84.6,98.1,169.2,219.2l151.9,221.2l-90.4,146.2c-586.5,942.3-580.8,2103.9,11.5,3013.5C4898.5-348.7,5523.6,84,6269.7,247.5c223.1,50,690.4,69.2,913.5,38.5c90.4-11.5,180.8-25,201.9-26.9c30.8-3.8,44.2,21.2,78.8,142.3c292.3,1015.4,101.9,2309.7-463.5,3152C6329.4,4551.4,5121.6,5114.9,3913.9,4993.7z M4571.6,2862.9c434.6-111.6,775-451.9,892.3-888.5c38.5-146.2,42.3-426.9,7.7-576.9c-32.7-148.1-155.8-396.2-253.9-509.6C4987,616.7,4688.9,466.7,4337,443.6c-575-36.5-1127,373.1-1257.7,936.6c-94.2,394.2,17.3,819.3,288.5,1113.5c67.3,73.1,171.2,163.5,228.8,201.9c109.6,75,313.5,157.7,442.3,184.6C4183.1,2909.1,4421.6,2901.4,4571.6,2862.9z"/><path d="M6587.1-237.2C5425.5-379.5,4567.8-1346.8,4567.8-2512.2c0-875,490.4-1657.7,1277-2040.4c398.1-194.2,805.8-269.2,1217.3-225c1725,182.7,2630.8,2100.1,1671.2,3540.5c-134.6,203.9-407.7,482.7-600,611.6C7687.1-321.8,7096.7-173.7,6587.1-237.2z M7206.3-608.3c728.9-140.4,1317.4-698.1,1507.7-1425c42.3-157.7,50-238.5,51.9-451.9c1.9-148.1-7.7-309.6-21.2-375c-175-807.7-750-1380.8-1552-1550c-188.5-40.4-586.6-30.8-784.6,17.3c-761.6,186.5-1332.7,794.2-1465.4,1559.7C4763.9-1818,5437-829.5,6452.4-612.2C6617.8-575.6,7027.5-573.7,7206.3-608.3z"/><path d="M6762.1-1300.7c-90.4-50-96.2-86.5-98.1-573.1v-457.7H6212c-557.7,0-586.6-9.6-586.6-184.6c0-46.1,15.4-82.7,48.1-113.4l46.2-48.1h471.2h471.2l5.8-482.7l5.8-482.7l53.8-46.1c61.5-53.9,126.9-57.7,205.8-17.3c32.7,17.3,59.6,32.7,61.5,34.6c1.9,1.9,9.6,225,15.4,494.3l9.6,490.4l461.6,3.8c486.6,5.8,526.9,13.5,565.4,96.2c34.6,76.9,25,140.4-34.6,200l-55.8,55.8h-473.1h-473.1v478.9v478.9l-59.6,50C6885.1-1268,6831.3-1262.2,6762.1-1300.7z"/></g></g>
</svg>